<svg width="46" height="46" viewBox="0 0 46 46" fill="none" xmlns="http://www.w3.org/2000/svg">
<ellipse cx="22.9981" cy="23" rx="22.9981" ry="23" fill="white"/>
<g clip-path="url(#clip0_1_62)">
<path d="M30.4121 16.9318C30.5392 16.2288 30.501 15.4963 30.3019 14.8187C30.1028 14.1412 29.7509 13.5463 29.2869 13.1028C28.8229 12.6592 28.2657 12.3851 27.6796 12.3122C27.0936 12.2392 26.5026 12.3703 25.9749 12.6903C25.7781 11.9111 25.3822 11.2295 24.8453 10.7454C24.3083 10.2612 23.6586 10 22.9913 10C22.3241 10 21.6743 10.2612 21.1374 10.7454C20.6005 11.2295 20.2046 11.9111 20.0077 12.6903C19.48 12.3703 18.8891 12.2392 18.303 12.3122C17.717 12.3851 17.1597 12.6592 16.6957 13.1028C16.2317 13.5463 15.8799 14.1412 15.6808 14.8187C15.4817 15.4963 15.4435 16.2288 15.5706 16.9318C14.8027 17.1003 14.1143 17.614 13.6409 18.3716C13.1674 19.1293 12.9432 20.0761 13.0123 21.0257C13.0814 21.9753 13.4389 22.8589 14.0143 23.5026C14.5898 24.1462 15.3416 24.5033 16.1217 24.5036H16.1841C16.3498 25.4954 16.831 26.3662 17.522 26.9244C18.213 27.4826 19.0572 27.6825 19.8688 27.4801C20.6804 27.2777 21.3929 26.6896 21.8497 25.8451C22.3064 25.0007 22.47 23.969 22.3044 22.9772H23.0538C22.8979 23.9712 23.0715 25.0001 23.5364 25.8377C24.0012 26.6753 24.7193 27.2528 25.5327 27.4434C26.3461 27.6339 27.188 27.4217 27.8734 26.8536C28.5587 26.2855 29.0314 25.4079 29.1873 24.4139C29.5937 24.5265 30.0145 24.5385 30.4247 24.4493C30.835 24.36 31.2265 24.1713 31.5762 23.8942C31.9259 23.6171 32.2266 23.2573 32.4607 22.836C32.6948 22.4147 32.8576 21.9404 32.9393 21.441C33.0211 20.9416 33.0202 20.4273 32.9368 19.9283C32.8533 19.4294 32.689 18.9558 32.4535 18.5357C32.218 18.1156 31.916 17.7573 31.5654 17.482C31.2148 17.2067 30.8227 17.0199 30.4121 16.9327V16.9318Z" fill="#2A9D8F"/>
<path d="M20.9558 35.5076H25.0446L24.4605 20.4901H21.5399L20.9558 35.5076Z" fill="#2A9D8F"/>
</g>
<defs>
<clipPath id="clip0_1_62">
<rect width="20" height="25.5076" fill="white" transform="translate(13 10)"/>
</clipPath>
</defs>
</svg>
